<svg width="50" height="50" viewBox="0 0 50 50" fill="none" xmlns="http://www.w3.org/2000/svg">
<g clip-path="url(#clip0_15_489)">
<path d="M25 0C38.8071 0 50 11.1929 50 25C50 37.7817 40.4073 48.3217 28.0288 49.8169V32.6396L34.7918 32.6396L36.1947 25H28.0288V22.2981C28.0288 20.2795 28.4247 18.8821 29.333 17.9892C30.2414 17.0964 31.6622 16.7082 33.7119 16.7082C34.2306 16.7082 34.7081 16.7134 35.1318 16.7237C35.7481 16.7387 36.2504 16.7646 36.6001 16.8014V9.87599C36.4603 9.83717 36.2953 9.79835 36.1105 9.76013C35.6918 9.67355 35.1713 9.59009 34.6117 9.51679C33.4424 9.36361 32.1027 9.2548 31.1654 9.2548C27.38 9.2548 24.5192 10.0646 22.5223 11.7421C20.1123 13.7665 18.9606 17.0546 18.9606 21.7081V25H13.8054V32.6396H18.9606V49.2638C8.07149 46.5622 0 36.7245 0 25C0 11.1929 11.1929 0 25 0Z" fill="white"/>
</g>
<defs>
<clipPath id="clip0_15_489">
<rect width="50" height="50" fill="white"/>
</clipPath>
</defs>
</svg>
