<svg width="50" height="50" viewBox="0 0 50 50" fill="none" xmlns="http://www.w3.org/2000/svg">
<path d="M38.3233 14.6294C36.6677 14.6327 35.3215 13.2921 35.3182 11.6364C35.315 9.98075 36.6556 8.63452 38.312 8.63129C39.9684 8.62805 41.3146 9.96941 41.3179 11.6251C41.3203 13.2807 39.9798 14.6262 38.3233 14.6294Z" fill="white"/>
<path fill-rule="evenodd" clip-rule="evenodd" d="M25.0239 37.8354C17.9356 37.8492 12.1773 32.1143 12.1635 25.0243C12.1498 17.9359 17.8862 12.1767 24.9745 12.1629C32.0644 12.1492 37.8235 17.8873 37.8373 24.9749C37.8511 32.0649 32.113 37.8217 25.0239 37.8354ZM24.9834 16.6674C20.3826 16.6755 16.6582 20.4137 16.6663 25.0154C16.6752 29.6179 20.4142 33.3415 25.015 33.3326C29.6174 33.3237 33.3418 29.5863 33.3329 24.9838C33.324 20.3813 29.5851 16.6585 24.9834 16.6674Z" fill="white"/>
<path fill-rule="evenodd" clip-rule="evenodd" d="M8.58167 1.34683C10.1693 0.724741 11.9861 0.298671 14.6462 0.173121C17.3127 0.0451513 18.164 0.0159813 24.9518 0.00302629C31.7413 -0.00992871 32.5925 0.0159763 35.2591 0.134236C37.9199 0.249256 39.7376 0.668851 41.3284 1.28447C42.9744 1.9187 44.3708 2.77246 45.7624 4.15839C47.154 5.54593 48.011 6.93755 48.6533 8.58105C49.2746 10.1703 49.7006 11.9855 49.827 14.6472C49.9534 17.313 49.9841 18.1635 49.9971 24.9522C50.0101 31.7401 49.9825 32.5922 49.8658 35.2604C49.75 37.9197 49.3313 39.7382 48.7157 41.3282C48.0798 42.9741 47.2277 44.3706 45.8417 45.7622C44.4558 47.1546 43.0626 48.0108 41.4192 48.654C39.8299 49.2744 38.0147 49.7005 35.3547 49.8277C32.6882 49.954 31.8368 49.984 25.0466 49.997C18.2596 50.0099 17.4083 49.984 14.7418 49.8665C12.0809 49.7499 10.2624 49.3311 8.67239 48.7163C7.02649 48.0797 5.63004 47.2283 4.23845 45.8416C2.84606 44.4549 1.9883 43.0625 1.34679 41.4189C0.724703 39.8305 0.300223 38.0145 0.173068 35.3552C0.0459081 32.6878 0.015948 31.8357 0.00299805 25.0478C-0.010002 18.2591 0.0167431 17.4086 0.133368 14.742C0.250833 12.0803 0.667993 10.2626 1.2836 8.67096C1.91943 7.02582 2.77155 5.63017 4.1591 4.23777C5.54501 2.84618 6.93819 1.98754 8.58167 1.34683ZM10.2949 44.5164C11.177 44.8558 12.5005 45.2608 14.9378 45.3669C17.5751 45.4811 18.3649 45.5063 25.0385 45.4933C31.7145 45.4811 32.5043 45.4528 35.1408 45.3289C37.5757 45.213 38.8992 44.8031 39.7789 44.4597C40.9461 44.0037 41.7772 43.4585 42.6503 42.5845C43.5235 41.7073 44.0638 40.8738 44.5158 39.7066C44.856 38.8236 45.2602 37.4993 45.3663 35.0619C45.4821 32.4262 45.5064 31.6356 45.4934 24.9603C45.4813 18.2866 45.4529 17.496 45.3274 14.8595C45.2124 12.4237 44.8033 11.1002 44.4591 10.2213C44.0031 9.05248 43.4595 8.22303 42.5831 7.34902C41.7067 6.47501 40.8732 5.93635 39.7044 5.48437C38.8239 5.14336 37.4987 4.73996 35.0631 4.63387C32.4257 4.51803 31.6351 4.49452 24.9599 4.5075C18.2863 4.52046 17.4966 4.54718 14.86 4.67194C12.4235 4.78775 11.1016 5.19681 10.2203 5.54108C9.0539 5.9971 8.22284 6.53901 7.34887 7.41626C6.47647 8.29348 5.93621 9.12537 5.48424 10.295C5.14569 11.1763 4.73822 12.5015 4.63375 14.9372C4.51871 17.5746 4.49443 18.3652 4.50739 25.0389C4.51955 31.7142 4.54788 32.5047 4.67182 35.1397C4.78603 37.577 5.19829 38.899 5.54095 39.7811C5.99697 40.9467 6.5405 41.7778 7.41611 42.6518C8.29335 43.5225 9.12683 44.0644 10.2949 44.5164Z" fill="white"/>
</svg>
